<svg xmlns="http://www.w3.org/2000/svg" xmlns:xlink="http://www.w3.org/1999/xlink" width="500" zoomAndPan="magnify" viewBox="0 0 375 374.999991" height="500" preserveAspectRatio="xMidYMid meet" version="1.0"><defs><g/></defs><rect x="-37.5" width="450" fill="#ffffff" y="-37.499999" height="449.999989" fill-opacity="1"/><rect x="-37.5" width="450" fill="#ffffff" y="-37.499999" height="449.999989" fill-opacity="1"/><rect x="-37.5" width="450" fill="#ffffff" y="-37.499999" height="449.999989" fill-opacity="1"/><g fill="#031926" fill-opacity="1"><g transform="translate(100.882759, 259.0601)"><g><path d="M 11.613281 -114.933594 L 60.5 -114.933594 L 60.5 -137.125 C 60.5 -137.816406 59.980469 -138.683594 58.765625 -138.683594 L 11.613281 -138.683594 C 10.402344 -138.683594 9.707031 -137.816406 9.707031 -137.125 L 9.707031 -116.492188 C 9.707031 -115.800781 10.402344 -114.933594 11.613281 -114.933594 Z M 34.152344 -91.183594 L 34.152344 -40.910156 C 34.152344 -40.910156 34.152344 -25.65625 19.070312 -25.65625 L 1.90625 -25.65625 C 0.867188 -25.65625 0 -24.964844 0 -24.097656 L 0 -1.558594 C 0 -0.867188 0.867188 0 1.90625 0 L 19.070312 0 C 19.070312 0 60.5 0 60.5 -40.910156 L 60.5 -91.183594 Z M 34.152344 -91.183594 "/></g></g></g><g fill="#031926" fill-opacity="1"><g transform="translate(183.572573, 259.0601)"><g><path d="M 63.621094 -76.96875 C 53.738281 -81.648438 44.03125 -81.648438 43.164062 -81.648438 C 34.324219 -81.648438 25.828125 -86.851562 25.828125 -96.90625 C 25.828125 -108 33.628906 -113.71875 43.164062 -113.71875 C 52.179688 -113.71875 59.808594 -109.039062 60.152344 -99.160156 C 60.152344 -98.636719 61.019531 -97.773438 62.0625 -97.773438 L 83.730469 -97.773438 C 84.945312 -97.773438 85.808594 -98.636719 85.636719 -99.160156 C 85.289062 -122.734375 66.914062 -138.683594 43.164062 -138.683594 C 20.976562 -138.683594 0 -122.90625 0 -96.90625 C 0 -80.78125 8.148438 -68.476562 22.535156 -61.886719 C 32.589844 -57.207031 41.953125 -57.207031 43.164062 -57.207031 C 50.964844 -56.859375 60.5 -50.621094 60.5 -40.390625 C 60.5 -31.203125 52.351562 -24.964844 43.164062 -24.964844 C 43.164062 -24.964844 43.164062 -24.964844 42.992188 -24.964844 L 42.992188 0 C 43.164062 0 43.164062 0 43.164062 0 C 65.355469 0 86.15625 -14.386719 86.15625 -40.390625 C 86.15625 -56.6875 78.183594 -70.207031 63.621094 -76.96875 Z M 63.621094 -76.96875 "/></g></g></g><path stroke-linecap="butt" transform="matrix(-2.156097, -0.000000000000000264, 0.000000000000000265, -2.166926, 370.453106, 54.94203)" fill="none" stroke-linejoin="miter" d="M -0.00000891724 5.000892 L 84.433529 5.000892 " stroke="#031926" stroke-width="10" stroke-opacity="1" stroke-miterlimit="4"/><path stroke-linecap="butt" transform="matrix(0.000000000000000132, -2.155017, 2.166926, 0.000000000000000133, 348.794953, 218.454449)" fill="none" stroke-linejoin="miter" d="M 0.000614313 4.999689 L 82.46262 4.999689 " stroke="#031926" stroke-width="10" stroke-opacity="1" stroke-miterlimit="4"/><path stroke-linecap="butt" transform="matrix(2.156097, 0, 0, 2.166926, 4.539732, 320.056561)" fill="none" stroke-linejoin="miter" d="M -0.000310349 4.99974 L 84.433227 4.99974 " stroke="#031926" stroke-width="10" stroke-opacity="1" stroke-miterlimit="4"/><path stroke-linecap="butt" transform="matrix(0.000000000000000132, 2.155017, -2.166926, 0.000000000000000133, 26.197878, 156.544149)" fill="none" stroke-linejoin="miter" d="M -0.000547638 4.999986 L 82.46327 4.999986 " stroke="#031926" stroke-width="10" stroke-opacity="1" stroke-miterlimit="4"/></svg>